<svg xmlns="http://www.w3.org/2000/svg" viewBox="0 0 32 32" width="32" height="32">
  <rect width="32" height="32" rx="4" fill="#1c1917"/>
  <path d="M16 4 L16 28" stroke="#78716c" stroke-width="1"/>
  <g fill="#d97706">
    <polygon points="16,6 12,14 20,14"/>
    <polygon points="16,26 12,18 20,18"/>
    <polygon points="6,8 4,13 8,13"/>
    <polygon points="26,8 24,13 28,13"/>
    <polygon points="6,24 4,19 8,19"/>
    <polygon points="26,24 24,19 28,19"/>
  </g>
  <g fill="#f5f5f4">
    <polygon points="26,13 24,18 28,18"/>
    <polygon points="16,13 12,18 20,18"/>
    <polygon points="6,13 4,18 8,18"/>
  </g>
</svg>
