<svg xmlns="http://www.w3.org/2000/svg" viewBox="0 0 512 512" width="512" height="512">
  <rect width="512" height="512" rx="32" fill="#1c1917"/>
  <path d="M256 32 L256 480" stroke="#78716c" stroke-width="4"/>
  <path d="M256 256 L480 256" stroke="#78716c" stroke-width="2" opacity="0.3"/>
  <path d="M256 256 L32 256" stroke="#78716c" stroke-width="2" opacity="0.3"/>
  <g fill="#d97706" opacity="0.9">
    <polygon points="256,48 210,96 302,96"/>
    <polygon points="256,464 210,416 302,416"/>
    <polygon points="96,80 48,128 144,128"/>
    <polygon points="416,80 368,128 464,128"/>
    <polygon points="96,432 48,384 144,384"/>
    <polygon points="416,432 368,384 464,384"/>
  </g>
  <g fill="#f5f5f4" opacity="0.9">
    <polygon points="416,128 368,176 464,176"/>
    <polygon points="256,128 210,176 302,176"/>
    <polygon points="96,128 48,176 144,176"/>
    <polygon points="416,384 368,336 464,336"/>
    <polygon points="256,384 210,336 302,336"/>
    <polygon points="96,384 48,336 144,336"/>
  </g>
</svg>
