<svg xmlns="http://www.w3.org/2000/svg" viewBox="0 0 192 192" width="192" height="192">
  <rect width="192" height="192" rx="16" fill="#1c1917"/>
  <path d="M96 16 L96 176" stroke="#78716c" stroke-width="2"/>
  <path d="M96 96 L176 96" stroke="#78716c" stroke-width="1" opacity="0.3"/>
  <path d="M96 96 L16 96" stroke="#78716c" stroke-width="1" opacity="0.3"/>
  <g fill="#d97706" opacity="0.9">
    <polygon points="96,24 80,48 112,48"/>
    <polygon points="96,168 80,144 112,144"/>
    <polygon points="40,40 24,64 56,64"/>
    <polygon points="152,40 136,64 168,64"/>
    <polygon points="40,152 24,128 56,128"/>
    <polygon points="152,152 136,128 168,128"/>
  </g>
  <g fill="#f5f5f4" opacity="0.9">
    <polygon points="152,64 136,88 168,88"/>
    <polygon points="96,64 80,88 112,88"/>
    <polygon points="40,64 24,88 56,88"/>
    <polygon points="152,128 136,104 168,104"/>
    <polygon points="96,128 80,104 112,104"/>
    <polygon points="40,128 24,104 56,104"/>
  </g>
</svg>
